<svg xmlns="http://www.w3.org/2000/svg" xmlns:xlink="http://www.w3.org/1999/xlink" width="5000" zoomAndPan="magnify" viewBox="0 0 375 374.999991" height="5000" preserveAspectRatio="xMidYMid meet" version="1.0">
<defs>
<g/>
<clipPath id="cc9c704c91">
<path d="M 83.023438 84.808594 L 292.273438 84.808594 L 292.273438 290.308594 L 83.023438 290.308594 Z M 83.023438 84.808594 " clip-rule="nonzero"/>
</clipPath>
<clipPath id="e0b436185d">
<path d="M 206.019531 108.417969 C 208.632812 108.417969 210.742188 110.523438 210.742188 113.132812 C 210.742188 115.742188 208.632812 117.847656 206.019531 117.847656 C 203.410156 117.847656 201.300781 115.742188 201.300781 113.132812 C 201.300781 110.523438 203.410156 108.417969 206.019531 108.417969 Z M 283.191406 185.097656 C 283.191406 187.457031 281.457031 189.394531 279.1875 189.746094 C 277.960938 207.195312 272.035156 223.367188 262.644531 237.003906 C 264.433594 238.722656 265.558594 241.121094 265.558594 243.800781 C 265.558594 249.007812 261.328125 253.230469 256.117188 253.230469 C 254.015625 253.230469 252.089844 252.519531 250.523438 251.363281 C 236.785156 264.742188 219.058594 274.03125 199.300781 277.242188 C 199.300781 277.332031 199.332031 277.425781 199.332031 277.515625 C 199.332031 284.566406 193.609375 290.277344 186.558594 290.277344 C 179.65625 290.277344 174.074219 284.800781 173.824219 277.976562 C 145.300781 274.976562 120.484375 259.402344 105.035156 236.90625 C 104.09375 237.417969 103.039062 237.726562 101.894531 237.726562 C 98.207031 237.726562 95.214844 234.738281 95.214844 231.054688 C 95.214844 228.699219 96.449219 226.628906 98.296875 225.445312 C 91.910156 212.652344 88.304688 198.242188 88.304688 183 C 88.304688 177.972656 88.746094 173.007812 89.53125 168.121094 C 85.765625 166.875 83.023438 163.363281 83.023438 159.191406 C 83.023438 153.980469 87.25 149.757812 92.460938 149.757812 C 93.085938 149.757812 93.699219 149.828125 94.289062 149.9375 C 102.867188 126.910156 120.171875 107.484375 143.058594 96.65625 C 143.109375 96.636719 143.160156 96.617188 143.222656 96.585938 C 143.03125 95.84375 142.898438 95.070312 142.898438 94.269531 C 142.898438 89.058594 147.128906 84.835938 152.339844 84.835938 C 156.136719 84.835938 159.402344 87.09375 160.886719 90.324219 C 160.9375 90.3125 160.988281 90.292969 161.027344 90.285156 L 161.367188 91.679688 C 161.609375 92.5 161.769531 93.355469 161.769531 94.257812 C 161.769531 96.042969 161.25 97.699219 160.382812 99.113281 L 174.152344 109.550781 C 174.976562 108.835938 176.042969 108.394531 177.21875 108.394531 C 179.828125 108.394531 181.9375 110.503906 181.9375 113.113281 C 181.9375 114.617188 181.222656 115.941406 180.121094 116.804688 L 191.238281 139.523438 C 191.871094 139.320312 192.53125 139.179688 193.234375 139.179688 C 195.234375 139.179688 197.003906 140.074219 198.226562 141.460938 L 214.386719 131.074219 C 214.195312 130.550781 214.074219 130 214.074219 129.417969 C 214.074219 126.808594 216.183594 124.703125 218.796875 124.703125 C 221.40625 124.703125 223.515625 126.808594 223.515625 129.417969 C 223.515625 130.410156 223.203125 131.324219 222.683594 132.085938 L 243.199219 153.730469 C 244.285156 152.980469 245.589844 152.527344 247.015625 152.527344 C 250.703125 152.527344 253.695312 155.515625 253.695312 159.199219 C 253.695312 162.542969 251.226562 165.289062 248.011719 165.773438 L 248.011719 204.453125 C 249.246094 204.636719 250.351562 205.15625 251.265625 205.917969 L 273.832031 185.8125 C 273.800781 185.578125 273.761719 185.347656 273.761719 185.109375 C 273.761719 182.5 275.871094 180.390625 278.484375 180.390625 C 281.082031 180.382812 283.191406 182.488281 283.191406 185.097656 Z M 242.054688 163.613281 L 218.753906 178.878906 C 218.765625 178.988281 218.785156 179.097656 218.785156 179.21875 C 218.785156 179.539062 218.753906 179.851562 218.695312 180.152344 L 243.160156 205.578125 C 243.996094 204.984375 244.96875 204.59375 246.023438 204.445312 L 246.023438 165.753906 C 244.445312 165.519531 243.070312 164.75 242.054688 163.613281 Z M 240.339844 211.007812 C 240.339844 209.472656 240.871094 208.085938 241.746094 206.953125 L 217.8125 182.066406 C 217.429688 182.558594 216.96875 182.972656 216.425781 183.28125 L 208.613281 213.996094 C 209.585938 214.410156 210.417969 215.050781 211.09375 215.84375 L 240.359375 211.085938 C 240.347656 211.058594 240.339844 211.035156 240.339844 211.007812 Z M 157.441406 151.03125 C 155.753906 153.589844 152.863281 155.277344 149.566406 155.277344 C 147.507812 155.277344 145.632812 154.605469 144.074219 153.492188 L 126.78125 172.898438 C 128.285156 174.550781 129.230469 176.730469 129.25 179.136719 L 146.453125 180.792969 C 147.5 174.804688 152.710938 170.226562 159.007812 170.226562 C 161.992188 170.226562 164.691406 171.292969 166.871094 172.996094 L 177.539062 161.417969 Z M 178.925781 159.921875 L 188.054688 150.007812 C 187.332031 149.105469 186.839844 148.03125 186.65625 146.835938 L 158.910156 146.835938 C 158.816406 147.691406 158.648438 148.511719 158.347656 149.277344 Z M 186.566406 195.765625 C 186.566406 195.421875 186.605469 195.082031 186.675781 194.761719 L 170.898438 187.597656 C 169.050781 192.375 164.441406 195.765625 159.007812 195.765625 C 157.613281 195.765625 156.285156 195.484375 155.03125 195.074219 L 146.785156 214.757812 C 147.742188 215.441406 148.503906 216.363281 148.984375 217.449219 L 186.585938 195.976562 C 186.578125 195.894531 186.566406 195.835938 186.566406 195.765625 Z M 125.183594 186.976562 L 140.027344 214.15625 C 140.902344 213.734375 141.863281 213.484375 142.898438 213.484375 C 143.644531 213.484375 144.34375 213.636719 145.019531 213.855469 L 153.203125 194.308594 C 149.085938 192.191406 146.234375 187.949219 146.234375 183 C 146.234375 182.921875 146.253906 182.839844 146.253906 182.761719 L 129.070312 181.105469 C 128.578125 183.53125 127.152344 185.609375 125.183594 186.976562 Z M 136.773438 222.796875 L 108.5 230.3125 C 108.53125 230.554688 108.570312 230.785156 108.570312 231.035156 L 152.722656 239.152344 C 153.625 236.535156 156.085938 234.648438 159.007812 234.648438 C 160.09375 234.648438 161.097656 234.929688 162 235.378906 L 187.824219 198.945312 C 187.542969 198.644531 187.308594 198.304688 187.121094 197.933594 L 149.496094 219.425781 C 149.527344 219.667969 149.566406 219.90625 149.566406 220.148438 C 149.566406 223.832031 146.574219 226.820312 142.890625 226.820312 C 140.15625 226.820312 137.796875 225.164062 136.773438 222.796875 Z M 191.289062 191.046875 C 192.542969 191.046875 193.679688 191.550781 194.519531 192.351562 L 210.066406 181.695312 C 209.617188 180.972656 209.34375 180.132812 209.34375 179.21875 C 209.34375 178.785156 209.425781 178.386719 209.527344 177.984375 L 179.355469 162.371094 L 168.339844 174.332031 C 170.457031 176.609375 171.785156 179.640625 171.785156 183 C 171.785156 183.925781 171.671875 184.828125 171.492188 185.691406 L 187.511719 192.964844 C 188.363281 191.8125 189.730469 191.046875 191.289062 191.046875 Z M 194.511719 199.1875 L 203.449219 213.988281 C 204.242188 213.65625 205.105469 213.476562 206.011719 213.476562 C 206.242188 213.476562 206.453125 213.515625 206.671875 213.546875 L 214.214844 183.914062 C 214.164062 183.914062 214.125 183.925781 214.074219 183.925781 C 213.113281 183.925781 212.21875 183.632812 211.464844 183.132812 L 195.644531 193.957031 C 195.878906 194.511719 195.996094 195.113281 195.996094 195.746094 C 195.996094 197.121094 195.425781 198.332031 194.511719 199.1875 Z M 215.351562 174.703125 C 216.554688 175.042969 217.550781 175.835938 218.152344 176.898438 L 240.949219 161.960938 C 240.558594 161.105469 240.328125 160.171875 240.328125 159.179688 C 240.328125 157.632812 240.878906 156.21875 241.765625 155.097656 L 221.226562 133.433594 C 220.652344 133.773438 220.011719 133.992188 219.316406 134.074219 Z M 189.488281 151.375 L 180.742188 160.867188 L 210.441406 176.238281 C 211.164062 175.363281 212.1875 174.753906 213.371094 174.582031 L 217.351562 133.894531 C 216.625 133.664062 215.964844 133.28125 215.441406 132.75 L 199.3125 143.125 C 199.695312 143.957031 199.914062 144.882812 199.914062 145.855469 C 199.914062 149.535156 196.921875 152.527344 193.234375 152.527344 C 191.851562 152.515625 190.5625 152.09375 189.488281 151.375 Z M 156.367188 139.332031 C 157.773438 140.796875 158.675781 142.722656 158.910156 144.859375 L 186.667969 144.859375 C 186.949219 143.003906 187.972656 141.390625 189.460938 140.367188 L 178.363281 117.6875 C 178 117.777344 177.617188 117.839844 177.226562 117.839844 C 176.421875 117.839844 175.679688 117.617188 175.019531 117.265625 Z M 151.054688 136.574219 C 152.449219 136.792969 153.746094 137.285156 154.859375 138.046875 L 173.492188 116.003906 C 172.878906 115.210938 172.488281 114.214844 172.488281 113.132812 C 172.488281 112.421875 172.65625 111.746094 172.9375 111.144531 L 159.179688 100.71875 C 157.5625 102.4375 155.324219 103.53125 152.800781 103.660156 Z M 100.425781 154.171875 C 100.808594 154.773438 101.101562 155.417969 101.339844 156.097656 L 140.246094 147.007812 C 140.199219 146.625 140.128906 146.246094 140.128906 145.84375 C 140.128906 140.808594 144.09375 136.722656 149.074219 136.460938 L 150.84375 103.539062 C 149.367188 103.308594 148.011719 102.746094 146.855469 101.914062 Z M 96.179688 150.519531 C 97.3125 151.011719 98.335938 151.714844 99.191406 152.585938 L 145.378906 100.597656 C 144.789062 99.957031 144.296875 99.226562 143.902344 98.441406 C 121.527344 109.027344 104.59375 128.011719 96.179688 150.519531 Z M 101.191406 224.441406 L 92.863281 168.570312 C 92.722656 168.582031 92.601562 168.613281 92.460938 168.613281 C 92.121094 168.613281 91.800781 168.550781 91.476562 168.511719 C 90.726562 173.257812 90.304688 178.09375 90.304688 182.980469 C 90.304688 197.941406 93.859375 212.082031 100.136719 224.632812 C 100.46875 224.542969 100.828125 224.484375 101.191406 224.441406 Z M 116.144531 187.90625 C 112.761719 186.472656 110.390625 183.121094 110.390625 179.21875 C 110.390625 174.011719 114.617188 169.785156 119.832031 169.785156 C 121.878906 169.785156 123.765625 170.457031 125.324219 171.570312 L 142.609375 152.164062 C 141.765625 151.234375 141.113281 150.140625 140.691406 148.933594 L 101.78125 158.027344 C 101.832031 158.40625 101.902344 158.789062 101.902344 159.191406 C 101.902344 163.574219 98.890625 167.238281 94.824219 168.289062 L 103.207031 224.511719 C 103.78125 224.625 104.3125 224.835938 104.816406 225.074219 Z M 106.523438 226.25 C 107.15625 226.851562 107.667969 227.582031 108.019531 228.394531 L 136.289062 220.878906 C 136.261719 220.640625 136.222656 220.398438 136.222656 220.148438 C 136.222656 218.210938 137.054688 216.484375 138.378906 215.269531 L 123.457031 187.929688 C 122.339844 188.390625 121.117188 188.652344 119.832031 188.652344 C 119.21875 188.652344 118.625 188.582031 118.042969 188.46875 Z M 174.503906 273.460938 L 106.753906 235.871094 C 121.867188 257.816406 146.09375 273.019531 173.941406 275.96875 C 174.042969 275.105469 174.234375 274.261719 174.503906 273.460938 Z M 178.089844 268 L 162.203125 247.128906 C 161.25 247.652344 160.171875 247.972656 159.007812 247.972656 C 155.324219 247.972656 152.328125 244.984375 152.328125 241.300781 C 152.328125 241.230469 152.351562 241.160156 152.351562 241.078125 L 108.25 232.972656 C 108.121094 233.382812 107.960938 233.785156 107.757812 234.15625 L 175.277344 271.613281 C 176 270.25 176.945312 269.023438 178.089844 268 Z M 190.03125 200.289062 C 189.832031 200.230469 189.621094 200.179688 189.429688 200.097656 L 163.628906 236.515625 C 164.894531 237.726562 165.6875 239.425781 165.6875 241.308594 C 165.6875 243.117188 164.964844 244.753906 163.789062 245.957031 L 179.648438 266.789062 C 181.574219 265.542969 183.855469 264.8125 186.304688 264.761719 Z M 190.0625 265.273438 L 203.019531 226.066406 C 200.847656 224.964844 199.34375 222.738281 199.34375 220.136719 C 199.34375 218.070312 200.296875 216.253906 201.773438 215.03125 L 192.8125 200.191406 C 192.554688 200.28125 192.292969 200.351562 192.011719 200.390625 L 188.285156 264.890625 C 188.886719 264.980469 189.480469 265.113281 190.0625 265.273438 Z M 243.039062 216.335938 C 241.945312 215.511719 241.121094 214.367188 240.691406 213.035156 L 212.207031 217.667969 C 212.519531 218.441406 212.699219 219.273438 212.699219 220.148438 C 212.699219 223.832031 209.707031 226.820312 206.019531 226.820312 C 205.640625 226.820312 205.269531 226.769531 204.894531 226.710938 L 191.929688 265.945312 C 193.15625 266.507812 194.261719 267.257812 195.234375 268.164062 Z M 249.074219 250 C 249.015625 249.929688 248.957031 249.851562 248.894531 249.78125 L 198.519531 273.109375 C 198.769531 273.800781 198.980469 274.515625 199.121094 275.257812 C 218.375 272.09375 235.660156 263.035156 249.074219 250 Z M 252.660156 235.027344 L 247.8125 217.589844 C 247.539062 217.621094 247.277344 217.667969 247.007812 217.667969 C 246.242188 217.667969 245.519531 217.519531 244.835938 217.277344 L 196.550781 269.628906 C 196.972656 270.160156 197.332031 270.710938 197.664062 271.3125 L 247.769531 248.113281 C 247.085938 246.808594 246.664062 245.355469 246.664062 243.777344 C 246.6875 239.796875 249.167969 236.414062 252.660156 235.027344 Z M 277.207031 189.613281 C 276.132812 189.3125 275.199219 188.660156 274.585938 187.757812 L 252.589844 207.355469 C 253.273438 208.398438 253.6875 209.652344 253.6875 210.996094 C 253.6875 213.707031 252.058594 216.035156 249.730469 217.078125 L 254.570312 234.507812 C 255.070312 234.425781 255.585938 234.347656 256.117188 234.347656 C 257.945312 234.347656 259.632812 234.886719 261.078125 235.78125 C 270.238281 222.464844 276.011719 206.660156 277.207031 189.613281 Z M 287.550781 145.84375 C 284.941406 145.84375 282.832031 147.953125 282.832031 150.558594 C 282.832031 153.167969 284.941406 155.277344 287.550781 155.277344 C 290.164062 155.277344 292.273438 153.167969 292.273438 150.558594 C 292.273438 147.960938 290.152344 145.84375 287.550781 145.84375 Z M 203.148438 94.21875 C 206.964844 94.21875 206.976562 88.289062 203.148438 88.289062 C 199.332031 88.289062 199.332031 94.21875 203.148438 94.21875 Z M 252.660156 128.476562 C 256.476562 128.476562 256.488281 122.542969 252.660156 122.542969 C 248.84375 122.542969 248.835938 128.476562 252.660156 128.476562 Z M 237.464844 108.417969 C 241.28125 108.417969 241.292969 102.484375 237.464844 102.484375 C 233.648438 102.484375 233.640625 108.417969 237.464844 108.417969 Z M 237.464844 108.417969 " clip-rule="nonzero"/>
</clipPath>
<linearGradient x1="1820.417487" gradientTransform="matrix(0.100432, 0, 0, 0.100343, 83.021899, 84.835658)" y1="2211.287554" x2="319.071429" gradientUnits="userSpaceOnUse" y2="-198.76597" id="e3f5f2a339">
<stop stop-opacity="1" stop-color="rgb(7.516479%, 41.668701%, 71.578979%)" offset="0"/>
<stop stop-opacity="1" stop-color="rgb(7.397461%, 41.7099%, 71.612549%)" offset="0.03125"/>
<stop stop-opacity="1" stop-color="rgb(7.16095%, 41.793823%, 71.679688%)" offset="0.0625"/>
<stop stop-opacity="1" stop-color="rgb(6.924438%, 41.876221%, 71.7453%)" offset="0.09375"/>
<stop stop-opacity="1" stop-color="rgb(6.687927%, 41.958618%, 71.812439%)" offset="0.125"/>
<stop stop-opacity="1" stop-color="rgb(6.44989%, 42.042542%, 71.879578%)" offset="0.15625"/>
<stop stop-opacity="1" stop-color="rgb(6.213379%, 42.124939%, 71.946716%)" offset="0.1875"/>
<stop stop-opacity="1" stop-color="rgb(5.976868%, 42.207336%, 72.012329%)" offset="0.21875"/>
<stop stop-opacity="1" stop-color="rgb(5.740356%, 42.289734%, 72.079468%)" offset="0.25"/>
<stop stop-opacity="1" stop-color="rgb(5.503845%, 42.373657%, 72.146606%)" offset="0.28125"/>
<stop stop-opacity="1" stop-color="rgb(5.267334%, 42.456055%, 72.213745%)" offset="0.3125"/>
<stop stop-opacity="1" stop-color="rgb(5.030823%, 42.538452%, 72.279358%)" offset="0.34375"/>
<stop stop-opacity="1" stop-color="rgb(4.794312%, 42.62085%, 72.346497%)" offset="0.375"/>
<stop stop-opacity="1" stop-color="rgb(4.556274%, 42.704773%, 72.413635%)" offset="0.387981"/>
<stop stop-opacity="1" stop-color="rgb(4.438782%, 42.745972%, 72.447205%)" offset="0.40625"/>
<stop stop-opacity="1" stop-color="rgb(4.319763%, 42.78717%, 72.480774%)" offset="0.4375"/>
<stop stop-opacity="1" stop-color="rgb(4.083252%, 42.869568%, 72.546387%)" offset="0.46875"/>
<stop stop-opacity="1" stop-color="rgb(3.846741%, 42.953491%, 72.613525%)" offset="0.5"/>
<stop stop-opacity="1" stop-color="rgb(3.610229%, 43.035889%, 72.680664%)" offset="0.53125"/>
<stop stop-opacity="1" stop-color="rgb(3.373718%, 43.118286%, 72.747803%)" offset="0.5625"/>
<stop stop-opacity="1" stop-color="rgb(3.137207%, 43.200684%, 72.813416%)" offset="0.59375"/>
<stop stop-opacity="1" stop-color="rgb(2.900696%, 43.284607%, 72.880554%)" offset="0.612019"/>
<stop stop-opacity="1" stop-color="rgb(2.783203%, 43.325806%, 72.914124%)" offset="0.625"/>
<stop stop-opacity="1" stop-color="rgb(2.664185%, 43.367004%, 72.947693%)" offset="0.65625"/>
<stop stop-opacity="1" stop-color="rgb(2.426147%, 43.449402%, 73.014832%)" offset="0.6875"/>
<stop stop-opacity="1" stop-color="rgb(2.189636%, 43.531799%, 73.080444%)" offset="0.71875"/>
<stop stop-opacity="1" stop-color="rgb(1.953125%, 43.615723%, 73.147583%)" offset="0.75"/>
<stop stop-opacity="1" stop-color="rgb(1.716614%, 43.69812%, 73.214722%)" offset="0.78125"/>
<stop stop-opacity="1" stop-color="rgb(1.480103%, 43.780518%, 73.28186%)" offset="0.8125"/>
<stop stop-opacity="1" stop-color="rgb(1.243591%, 43.862915%, 73.347473%)" offset="0.84375"/>
<stop stop-opacity="1" stop-color="rgb(1.00708%, 43.946838%, 73.414612%)" offset="0.875"/>
<stop stop-opacity="1" stop-color="rgb(0.770569%, 44.029236%, 73.48175%)" offset="0.90625"/>
<stop stop-opacity="1" stop-color="rgb(0.532532%, 44.111633%, 73.548889%)" offset="0.9375"/>
<stop stop-opacity="1" stop-color="rgb(0.296021%, 44.195557%, 73.614502%)" offset="0.96875"/>
<stop stop-opacity="1" stop-color="rgb(0.088501%, 44.267273%, 73.674011%)" offset="1"/>
</linearGradient>
</defs>
<g clip-path="url(#cc9c704c91)">
<g clip-path="url(#e0b436185d)">
<path fill="url(#e3f5f2a339)" d="M 83.023438 84.835938 L 83.023438 290.277344 L 292.273438 290.277344 L 292.273438 84.835938 Z M 83.023438 84.835938 " fill-rule="nonzero"/>
</g>
</g>
</svg>